PathFileType	4	(X/Y/Z)	OpenSim_Sub06_EMGBaseline_Magnet.trc
DataRate	CameraRate	NumFrames	NumMarkers	Units	OrigDataRate	OrigDataStartFrame	OrigNumFrames
100	100	16	8	m	100	6203	8270
Frame#	Time	torso_imu_offset_imu	pelvis_imu_offset_imu	tibia_r_imu_offset_imu	femur_r_imu_offset_imu	tibia_l_imu_offset_imu	femur_l_imu_offset_imu	toes_r_imu_offset_imu	toes_l_imu_offset_imu
				X1	Y1	Z1	X2	Y2	Z2	X3	Y3	Z3	X4	Y4	Z4	X5	Y5	Z5	X6	Y6	Z6	X7	Y7	Z7	X8		Y8	Z8	

6203	62.02000000	-0.91515214	-0.22611163	0.04089608	-0.54782613	0.26428199	-0.69578443	-0.52605098	-0.52755868	-0.32693649	-0.84203492	-0.11176462	0.00143871	-0.60164272	0.53976633	0.16076403	-0.62137838	0.27831898	0.45995808	-0.55580939	-0.31675146	-0.46643136	-0.72088434	-0.08501285	-0.40826706
6204	62.03000000	-0.91702595	-0.22857413	0.04090624	-0.55392688	0.26190464	-0.69650906	-0.55346435	-0.50898681	-0.33071289	-0.83812968	-0.11628879	0.00398905	-0.59545583	0.54037974	0.16139024	-0.62374940	0.27998898	0.47038735	-0.55310485	-0.29163948	-0.47641166	-0.72082946	-0.08153349	-0.39949580
6205	62.04000000	-0.91435055	-0.23021115	0.04334793	-0.54714072	0.26439668	-0.70093150	-0.57078521	-0.48561754	-0.32501838	-0.83972693	-0.12655048	0.00636264	-0.59587718	0.54915870	0.16711161	-0.61741244	0.28322938	0.46428530	-0.56234337	-0.26623918	-0.48366009	-0.72148663	-0.08568151	-0.40444096
6206	62.05000000	-0.91043201	-0.23051096	0.04320008	-0.55070719	0.26386483	-0.69853244	-0.58961661	-0.46592568	-0.31944200	-0.83786571	-0.13286529	0.00409450	-0.59069555	0.55100430	0.16475033	-0.62247682	0.29603858	0.45682279	-0.56641576	-0.25186914	-0.49553387	-0.72798421	-0.08118160	-0.40190001
6207	62.06000000	-0.91049139	-0.23460620	0.04345379	-0.55827864	0.26219054	-0.70054950	-0.60139708	-0.45556219	-0.29276679	-0.84147269	-0.14086830	0.00213440	-0.58218785	0.55575163	0.16652579	-0.61748970	0.29742140	0.46788732	-0.56915369	-0.22630445	-0.49631083	-0.72829793	-0.07862966	-0.40410755
6208	62.07000000	-0.91018105	-0.23428887	0.04355107	-0.55616398	0.26626164	-0.69593440	-0.62410852	-0.44106380	-0.28104932	-0.83687653	-0.14509374	0.00247675	-0.58062551	0.56260200	0.16368120	-0.61373875	0.29814686	0.45985776	-0.57199204	-0.19564045	-0.50708830	-0.73459588	-0.07518093	-0.39951097
6209	62.08000000	-0.91119296	-0.23449051	0.04600374	-0.55539460	0.26349599	-0.69632925	-0.63067156	-0.43395519	-0.27008703	-0.83684690	-0.15557675	0.00307855	-0.58062915	0.56839344	0.16426040	-0.61369621	0.30698750	0.45696267	-0.57530278	-0.16521040	-0.50753312	-0.73021876	-0.07628313	-0.39917181
6210	62.09000000	-0.91878827	-0.23691891	0.04767309	-0.55043191	0.26226259	-0.69843350	-0.64714058	-0.43072049	-0.26220219	-0.83447791	-0.15917069	0.00567642	-0.57537614	0.56626238	0.17014808	-0.60694799	0.31334464	0.46513480	-0.58198108	-0.14261496	-0.51365569	-0.73556780	-0.06346813	-0.39299780
6211	62.10000000	-0.91234618	-0.23857903	0.04589900	-0.56514286	0.26616439	-0.69290692	-0.64690442	-0.40849479	-0.26286400	-0.83222550	-0.16092400	0.00757991	-0.56692819	0.57389581	0.16322550	-0.60329897	0.31745492	0.46078678	-0.58104158	-0.13680496	-0.51248747	-0.73751444	-0.06615800	-0.39495091
6212	62.11000000	-0.91658472	-0.23426987	0.05008941	-0.55771568	0.26381488	-0.68701278	-0.65304138	-0.38934190	-0.26167831	-0.83074876	-0.16104579	0.00781278	-0.56338899	0.58446662	0.16727598	-0.60267779	0.32035863	0.46490976	-0.57532764	-0.12684368	-0.52206521	-0.73984593	-0.06143283	-0.38842606
6213	62.12000000	-0.91017371	-0.23476193	0.04499245	-0.55872334	0.26366956	-0.69421329	-0.66536575	-0.38766382	-0.26357286	-0.83219069	-0.16314447	0.00981994	-0.56047545	0.58851208	0.16500135	-0.59459370	0.33321337	0.45782221	-0.57310023	-0.12664510	-0.51388546	-0.74272522	-0.05899417	-0.38817560
6214	62.13000000	-0.91526506	-0.23894684	0.04123571	-0.56008015	0.25948973	-0.69373917	-0.66938562	-0.37950878	-0.25406836	-0.82867782	-0.16329266	0.01120557	-0.55231425	0.59585628	0.16844795	-0.59514618	0.33522316	0.46122104	-0.56960480	-0.11613645	-0.52329011	-0.75163099	-0.04993664	-0.38182776
6215	62.14000000	-0.91887900	-0.23886894	0.04374580	-0.55551351	0.25739162	-0.69586845	-0.67306886	-0.38224628	-0.24857064	-0.83476411	-0.16479033	0.02974031	-0.55225071	0.60621327	0.16083666	-0.59334233	0.34427030	0.46713556	-0.57172396	-0.11242495	-0.52408244	-0.75164380	-0.04651745	-0.38374077
6216	62.15000000	-0.91677005	-0.24111501	0.04323866	-0.55619812	0.25080703	-0.69046890	-0.67097210	-0.38401598	-0.25025384	-0.83042947	-0.16084728	0.03548586	-0.53835975	0.61173803	0.15855934	-0.59539589	0.34783809	0.46150779	-0.57029654	-0.10583513	-0.52285121	-0.75917185	-0.04582963	-0.36892428
6217	62.16000000	-0.91872204	-0.24087117	0.03624531	-0.55968585	0.24696090	-0.69150838	-0.67294762	-0.38429032	-0.24608524	-0.83253306	-0.16309531	0.03751156	-0.53037034	0.62891058	0.15286317	-0.59363534	0.35053733	0.45295070	-0.57717973	-0.10105200	-0.52652694	-0.77077162	-0.03225746	-0.35957181
6218	62.17000000	-0.91652828	-0.24088047	0.03244016	-0.55345850	0.24729515	-0.69808379	-0.66837233	-0.38853740	-0.24808539	-0.83053892	-0.16076851	0.03796095	-0.51878590	0.63030951	0.15368217	-0.59575974	0.35725579	0.44861069	-0.58263898	-0.11837124	-0.51468534	-0.77433166	-0.02700264	-0.36141767
